<svg id="f4ffc921-5e5b-4b75-ac29-bc76757de3e3" data-name="Layer 1" xmlns="http://www.w3.org/2000/svg"
    viewBox="0 0 815.44 1032.56">
    <defs>
        <style>
            .fill {
                fill: #37003C;
            }
        </style>
    </defs>
    <path class="fill"
        d="M275.75,514.64v-7.55a46.25,46.25,0,0,0,1.39-6.18A251,251,0,0,1,283.06,466a464.9,464.9,0,0,1,37-101c12.78-25.64,27.69-49.92,46.41-71.72.39-.46.69-1,1.34-1.94l-46.67-9.42a436.64,436.64,0,0,1,62.42-95.45,412.77,412.77,0,0,1,76.81-69.68c-.71,2-1.7,3.9-2.54,5.81a63.16,63.16,0,0,0-2.5,6.31c-7.39,23.36-6.4,46.4,3.3,68.89,7.05,16.36,18.66,28.78,34.27,37.42,1.13.62,2.32,1.1,4.19,2-1.9-4.06-3.45-7.22-4.88-10.43-8.65-19.43-13.9-39.59-12.65-61.07a72,72,0,0,1,9.13-32,44.21,44.21,0,0,1,9.5-12.1c13-11.06,28-14.82,44.71-11.87,12,2.12,22.69,7.23,32.58,14.19,1,.71,1.84,1.89,3.45,1.82-4.83-11.94-13.84-25-22.9-33.2-8.7-7.89-18.72-13.06-30.46-14.62-1.68-.22-3.37-.38-5.79-.65,1.43-.85,2.22-1.4,3.08-1.81,4.08-2,8.15-3.93,12.27-5.8,55.74-25.21,113.92-40.18,175.32-41.17,13.43-.22,26.89.62,40.33.95a33.28,33.28,0,0,1,19.05,6.19l.64.41A212.31,212.31,0,0,1,824,85.93c.54.71,1.17,1.36,2.19,2.54a114.56,114.56,0,0,0-2.9-24.64c-1.68-7.79-3.75-15.49-5.71-23.5,1.14.2,2,.29,2.83.51,29.89,7.62,58.37,18.72,84.94,34.51,14.2,8.44,27.34,18.36,40.46,28.35a7,7,0,0,1,3,5.63,170.29,170.29,0,0,0,7.39,39.18c4,13,9.5,25.42,15.16,37.77.58,1.27,1.1,2.57,1.64,3.85l-.86.58c-2.22-2.38-4.31-4.92-6.7-7.13a470.65,470.65,0,0,0-89.62-64.92c-6.24-3.48-12.91-6.19-19.41-9.2a37,37,0,0,0-4.19-1.32c-2.19,15.39-4.42,30.39-11.8,44.31L836.81,150c-14.26-9.67-28.38-19.55-42.81-29a328.43,328.43,0,0,0-42.13-23.5,9.63,9.63,0,0,0-5.81-1c-27.72,4.38-54.46,12-79.86,24.08-17.34,8.24-33.65,18.1-48,31-1.11,1-2.3,1.92-3.79,3.16l21.27,18.94a120.55,120.55,0,0,0-25.41,10.85,129.6,129.6,0,0,0-21.92,16c-9,8.1-16.3,16.55-17.59,20.46L607.44,228c.26,2.64.39,5,.74,7.35,2.29,15.07,9.15,27.82,19.75,38.64,11.43,11.65,25.57,19,40.49,24.94,8.71,3.47,18,4.63,27.31,5.16,15.1.85,30.17-.17,45.24-1,14.45-.81,28.88-1.6,43.35-.57,13.62,1,26.94,3.29,39.72,8.23,1,.38,2,.64,3.06.95a9,9,0,0,0-2.1-3.32c-8.17-8.72-16.11-17.67-24.59-26.09-11.5-11.43-23.42-22.44-35.15-33.65a7.67,7.67,0,0,0-5-2.31c-9.15-.61-18.29-1.48-27.45-1.91-6.14-.29-12.32.06-18.48,0A102.85,102.85,0,0,1,689,241.28a91,91,0,0,1-13.86-4.74c-4.81-2.12-9.29-5-14-7.36-4.15-2.1-8.44-3.92-12.59-6-2.55-1.28-4.95-2.86-7.92-4.6,1.33-1.18,2.23-2,3.18-2.8,3.61-2.94,7.14-6,10.88-8.74,15.64-11.51,32.57-20.43,51.48-25.26a9.64,9.64,0,0,1,4.74-.1c21.9,6.26,42.64,15.07,61.39,28.2.8.55,1.67,1,2.49,1.49,1.75-1.4,3.3-2.68,4.89-3.91,8.69-6.66,18.2-11.63,29-13.91a9.15,9.15,0,0,1,4.91-.17c-1.12,1.31-1.93,2.25-2.72,3.21a47.12,47.12,0,0,0-8.71,15.32,31.68,31.68,0,0,0-.27,20.38,11.08,11.08,0,0,0,2.71,4.37c19.84,18.61,38.37,38.47,56.52,58.7.91,1,1.85,2,2.8,3,1.05-.43,1.83-.8,2.65-1.09,5.55-2,11-4.43,16.7-5.81,23.33-5.63,46.83-5.62,70.36-1.25,7.31,1.36,14.46,3.32,21,7.06.67.38,1.37.73,2.06,1.09a13.44,13.44,0,0,0-2.41-4A229.85,229.85,0,0,0,945.5,265c-9-7.83-18.21-15.47-27.28-23.24a13.72,13.72,0,0,1-2.89-3.38c-3.32-5.62-6.3-11.45-9.83-16.93-4.78-7.39-10-14.52-15-21.77-.68-1-1.28-2-1.92-3l.54-.62a232.77,232.77,0,0,1,40.29,24.73,4.94,4.94,0,0,0,.66-.34c.92-1,1.82-2.09,2.73-3.12A46.64,46.64,0,0,1,955,202.85a5,5,0,0,1,5.16,1c8.4,7.16,13.56,16.06,14.87,27.1.42,3.59-.29,6.69-3.38,9-2.31,1.73-4.47,3.67-6.69,5.52L963.13,247c6.38,7.94,32.16,34.91,34.92,36.44.36-4,.69-7.82,1.07-11.67s.8-7.83,1.29-12.52c.9,1.16,1.3,1.6,1.63,2.1,24.33,37.12,45.46,75.91,61.24,117.5,15.17,40,25,81.25,27.2,124,1.44,27.76.87,55.55-3.2,83.19a505,505,0,0,1-19.8,83.92c-.42,1.25-.89,2.48-1.5,4.21l-37.3-41.89c-.28,1.25-.44,1.7-.48,2.16a387.53,387.53,0,0,1-6.88,45.84c-10.59,49.49-31,94.42-62.37,134.25-25.39,32.25-55.9,58.81-90,81.38-.71.47-1.47.86-2.59,1.51l-16.41-60.7c-1.31.85-2.17,1.36-3,1.93a317.61,317.61,0,0,1-56.53,32.37A351.4,351.4,0,0,1,679,900.48c-4.1.38-8.2.92-12.29,1.38H630.49c-1-.21-1.92-.52-2.89-.64-11-1.34-22-2.19-32.92-4.05a273.79,273.79,0,0,1-87.09-30.6c-1.06-.59-2.07-1.27-3-1.83,2.67-13.93,5.39-27.48,7.83-41.08A548.82,548.82,0,0,0,520.91,751a418.31,418.31,0,0,0-2.69-72.67,407.43,407.43,0,0,0-13-61.94,20.59,20.59,0,0,0-1-2.32c-.4.29-.66.39-.79.58q-1.46,2.21-2.88,4.42c-20.77,32.66-43.88,63.54-70.21,91.94-15.76,17-32.42,33-50.9,47.1-1.37,1-2.82,2-4.43,3.09-1-1.75-1.82-3.15-2.58-4.58-8.39-15.87-14.33-32.67-18.94-50-9.71-36.41-13.76-73.59-14.94-111.14a497.93,497.93,0,0,1,1.47-58.07c1.13-13.28,2.7-26.51,5.87-39.5.88-3.61,1.89-7.2,3-11.29-1.57.53-2.72.88-3.84,1.31-12.2,4.7-24.38,9.44-36.58,14.13Q292.15,508.42,275.75,514.64Zm459-115.34a14.91,14.91,0,0,0,.61,1.55c16.56,29,32.51,58.43,47.53,88.31a3.93,3.93,0,0,0,3.44,2.37c7.72,1,15.32.17,22.86-1.35,13.16-2.66,25.47-7.69,37.36-13.81,24.52-12.63,46.47-28.95,67.29-46.9a5.4,5.4,0,0,0,2-4.56c-.06-18.49,0-37,0-55.46,0-.87-.1-1.73-.16-2.72-.94-.46-1.8-.94-2.72-1.32a274.38,274.38,0,0,1-50-27.08,10,10,0,0,0-8.42-1.55,198,198,0,0,0-41,13.75c-24.63,11.13-47.39,25.39-69.1,41.39C741.18,394.3,738,396.79,734.75,399.3Zm178.6,225.81c1.75-.9,3-1.47,4.15-2.14a93,93,0,0,0,25.78-22.37c15.46-19.15,23.92-41.39,28.45-65.32a9.16,9.16,0,0,0-.42-4.39,133.51,133.51,0,0,0-22.47-41.57,6.92,6.92,0,0,0-6-2.93c-12.7.13-25.4.11-38.1,0a8.13,8.13,0,0,0-5.76,2.12,353.09,353.09,0,0,1-42.69,31.62c-15.62,9.7-31.55,18.75-50.7,20.53l30.53,58.4a8.94,8.94,0,0,0,1.1-.21,265,265,0,0,0,41.6-17.63c9-4.87,17.56-10.32,24.3-18.21.13-.14.45-.11,1-.24A250.78,250.78,0,0,1,913.35,625.11ZM993,490.59c.43-.34.81-.51,1-.8.58-1,1.12-2,1.62-3a129.53,129.53,0,0,0,13-50.41c1.94-32.51-4.91-63.47-16.79-93.51a17.79,17.79,0,0,0-1.1-2c-.88.56-1.51.95-2.13,1.37-12.65,8.44-25.27,16.92-38,25.28a4.48,4.48,0,0,0-2.22,4.31q.09,27.74,0,55.47a6.47,6.47,0,0,0,1.84,4.72c5,5.45,10,11,14.95,16.49a161.63,161.63,0,0,1,26.21,39C991.87,488.57,992.45,489.53,993,490.59Z"
        transform="translate(-275.75 130.7)" />
    <path class="fill"
        d="M709-35.24c29.49-31.29,58.58-62.39,86.43-95.46,1.26,7.15,1.06,14,1.71,20.73.66,6.89,1,13.8,1.55,20.69s1,14,1.65,21.06,1.35,13.77,2,20.65a198.94,198.94,0,0,0,2.75,21.23c8.22-13.87,18.26-25.21,29.13-35.84a211.42,211.42,0,0,1,35.47-28.16,263.91,263.91,0,0,0-14.43,37.77,266.8,266.8,0,0,0-8.43,39.8c-1.72,13.42-3,26.89-4.58,40.64l-15.09-3.49C808.54,20,789.89,16,771,13.2a376.08,376.08,0,0,0-59-3.85A446.09,446.09,0,0,0,577,31.51a407.66,407.66,0,0,0-81.2,36.91c-1,.56-2,1-3.18,1.68-12.07-41.28-27.55-80.76-52.55-116,27.8,13,54.28,27.84,75.86,51.36-5.24-33.95-10.38-67.28-15.59-101.09,36,25.5,72,50.8,109.67,74.64,6.78-18.4,12.78-36.62,19-54.79s12.28-36.4,18.38-54.51a3.15,3.15,0,0,1,.57-.1.51.51,0,0,1,.33.13,2.62,2.62,0,0,1,.51.54Z"
        transform="translate(-275.75 130.7)" />
</svg>